<mxfile host="app.diagrams.net" modified="2023-11-16T20:15:05.408Z" agent="Mozilla/5.0 (Windows NT 10.0; Win64; x64; rv:120.0) Gecko/20100101 Firefox/120.0" etag="KX739x_nMkhJ_9KA2zfR" version="22.1.2" type="device">
  <diagram name="Page-1" id="mnNjPRno8DZEobUO6ieS">
    <mxGraphModel dx="1434" dy="2007" grid="1" gridSize="10" guides="1" tooltips="1" connect="1" arrows="1" fold="1" page="1" pageScale="1" pageWidth="850" pageHeight="1100" math="0" shadow="0">
      <root>
        <mxCell id="0" />
        <mxCell id="1" parent="0" />
        <mxCell id="-NMonpC_3jF9ahiclbTj-22" value="" style="rounded=0;whiteSpace=wrap;html=1;" vertex="1" parent="1">
          <mxGeometry x="210" y="-480" width="850" height="380" as="geometry" />
        </mxCell>
        <mxCell id="-NMonpC_3jF9ahiclbTj-19" style="edgeStyle=orthogonalEdgeStyle;rounded=0;orthogonalLoop=1;jettySize=auto;html=1;" edge="1" parent="1" source="-NMonpC_3jF9ahiclbTj-2" target="-NMonpC_3jF9ahiclbTj-4">
          <mxGeometry relative="1" as="geometry" />
        </mxCell>
        <mxCell id="-NMonpC_3jF9ahiclbTj-2" value="Candidates Queue" style="rounded=0;whiteSpace=wrap;html=1;" vertex="1" parent="1">
          <mxGeometry x="360" y="-220" width="260" height="60" as="geometry" />
        </mxCell>
        <mxCell id="-NMonpC_3jF9ahiclbTj-3" value="Search Module" style="text;strokeColor=none;fillColor=none;align=left;verticalAlign=middle;spacingLeft=4;spacingRight=4;overflow=hidden;points=[[0,0.5],[1,0.5]];portConstraint=eastwest;rotatable=0;whiteSpace=wrap;html=1;" vertex="1" parent="1">
          <mxGeometry x="220" y="-470" width="120" height="30" as="geometry" />
        </mxCell>
        <mxCell id="-NMonpC_3jF9ahiclbTj-24" style="edgeStyle=orthogonalEdgeStyle;rounded=0;orthogonalLoop=1;jettySize=auto;html=1;" edge="1" parent="1" source="-NMonpC_3jF9ahiclbTj-4" target="-NMonpC_3jF9ahiclbTj-23">
          <mxGeometry relative="1" as="geometry" />
        </mxCell>
        <mxCell id="-NMonpC_3jF9ahiclbTj-29" value="&lt;div style=&quot;font-size: 15px;&quot;&gt;&lt;font style=&quot;font-size: 15px;&quot;&gt;at any layer&amp;nbsp;&lt;/font&gt;&lt;/div&gt;&lt;div style=&quot;font-size: 15px;&quot;&gt;&lt;font style=&quot;font-size: 15px;&quot;&gt;rather than last&lt;/font&gt;&lt;/div&gt;&lt;div style=&quot;font-size: 15px;&quot;&gt;&lt;font style=&quot;font-size: 15px;&quot;&gt;layer&lt;/font&gt;&lt;br&gt; &lt;/div&gt;" style="edgeLabel;html=1;align=center;verticalAlign=middle;resizable=0;points=[];" vertex="1" connectable="0" parent="-NMonpC_3jF9ahiclbTj-24">
          <mxGeometry x="0.4424" y="-4" relative="1" as="geometry">
            <mxPoint x="-39" y="-4" as="offset" />
          </mxGeometry>
        </mxCell>
        <mxCell id="-NMonpC_3jF9ahiclbTj-27" style="edgeStyle=orthogonalEdgeStyle;rounded=0;orthogonalLoop=1;jettySize=auto;html=1;" edge="1" parent="1" source="-NMonpC_3jF9ahiclbTj-4" target="-NMonpC_3jF9ahiclbTj-26">
          <mxGeometry relative="1" as="geometry" />
        </mxCell>
        <mxCell id="-NMonpC_3jF9ahiclbTj-28" value="&lt;font style=&quot;font-size: 15px;&quot;&gt;at the last layer&lt;/font&gt;" style="edgeLabel;html=1;align=center;verticalAlign=middle;resizable=0;points=[];" vertex="1" connectable="0" parent="-NMonpC_3jF9ahiclbTj-27">
          <mxGeometry x="0.2615" y="2" relative="1" as="geometry">
            <mxPoint as="offset" />
          </mxGeometry>
        </mxCell>
        <mxCell id="-NMonpC_3jF9ahiclbTj-4" value="best KNN Queue" style="rounded=0;whiteSpace=wrap;html=1;" vertex="1" parent="1">
          <mxGeometry x="720" y="-220" width="260" height="60" as="geometry" />
        </mxCell>
        <mxCell id="-NMonpC_3jF9ahiclbTj-18" style="edgeStyle=orthogonalEdgeStyle;rounded=0;orthogonalLoop=1;jettySize=auto;html=1;" edge="1" parent="1" source="-NMonpC_3jF9ahiclbTj-17" target="-NMonpC_3jF9ahiclbTj-2">
          <mxGeometry relative="1" as="geometry">
            <Array as="points">
              <mxPoint x="290" y="-375" />
              <mxPoint x="290" y="-190" />
            </Array>
          </mxGeometry>
        </mxCell>
        <mxCell id="-NMonpC_3jF9ahiclbTj-17" value="HNSW" style="shape=cube;whiteSpace=wrap;html=1;boundedLbl=1;backgroundOutline=1;darkOpacity=0.05;darkOpacity2=0.1;" vertex="1" parent="1">
          <mxGeometry x="500" y="-430" width="340" height="130" as="geometry" />
        </mxCell>
        <mxCell id="-NMonpC_3jF9ahiclbTj-23" value="Next Layer" style="rounded=0;whiteSpace=wrap;html=1;" vertex="1" parent="1">
          <mxGeometry x="1145" y="-220" width="260" height="60" as="geometry" />
        </mxCell>
        <mxCell id="-NMonpC_3jF9ahiclbTj-25" style="edgeStyle=orthogonalEdgeStyle;rounded=0;orthogonalLoop=1;jettySize=auto;html=1;entryX=1.001;entryY=0.197;entryDx=0;entryDy=0;entryPerimeter=0;" edge="1" parent="1" source="-NMonpC_3jF9ahiclbTj-23" target="-NMonpC_3jF9ahiclbTj-22">
          <mxGeometry relative="1" as="geometry">
            <Array as="points">
              <mxPoint x="1480" y="-190" />
              <mxPoint x="1480" y="-405" />
            </Array>
          </mxGeometry>
        </mxCell>
        <mxCell id="-NMonpC_3jF9ahiclbTj-26" value="KNN nodes " style="rounded=0;whiteSpace=wrap;html=1;" vertex="1" parent="1">
          <mxGeometry x="720" y="-30" width="260" height="60" as="geometry" />
        </mxCell>
        <mxCell id="-NMonpC_3jF9ahiclbTj-33" value="i/p" style="triangle;whiteSpace=wrap;html=1;direction=south;" vertex="1" parent="1">
          <mxGeometry x="580" y="-640" width="80" height="60" as="geometry" />
        </mxCell>
        <mxCell id="-NMonpC_3jF9ahiclbTj-34" style="edgeStyle=orthogonalEdgeStyle;rounded=0;orthogonalLoop=1;jettySize=auto;html=1;entryX=0.482;entryY=-0.005;entryDx=0;entryDy=0;entryPerimeter=0;" edge="1" parent="1" source="-NMonpC_3jF9ahiclbTj-33" target="-NMonpC_3jF9ahiclbTj-22">
          <mxGeometry relative="1" as="geometry" />
        </mxCell>
        <mxCell id="-NMonpC_3jF9ahiclbTj-36" style="edgeStyle=orthogonalEdgeStyle;rounded=0;orthogonalLoop=1;jettySize=auto;html=1;entryX=0;entryY=0.5;entryDx=0;entryDy=0;" edge="1" parent="1" source="-NMonpC_3jF9ahiclbTj-35" target="-NMonpC_3jF9ahiclbTj-33">
          <mxGeometry relative="1" as="geometry" />
        </mxCell>
        <mxCell id="-NMonpC_3jF9ahiclbTj-35" value="Search Query" style="rounded=1;whiteSpace=wrap;html=1;" vertex="1" parent="1">
          <mxGeometry x="560" y="-780" width="120" height="60" as="geometry" />
        </mxCell>
      </root>
    </mxGraphModel>
  </diagram>
</mxfile>
